:FULLY-SPECIFIED
:FORCE-ALL-JOINTS-BE-3DOF
:DEGREES
48
root 0.546782 17.3136 -10.9649 3.71221 -7.42939 -3.98498
lfemur -24.4534 12.4716 -11.5443
ltibia 102.777 0 0
lfoot 11.1853 -4.0205 0
ltoes -9.98481 0 0
rfemur -14.39 1.31448 29.8865
rtibia 50.913 0 0
rfoot -10.5113 -6.42748 0
rtoes -3.76958 0 0
lowerback 18.3842 -0.791049 2.70021
upperback 2.38039 -0.371033 1.50238
thorax -7.72248 -0.250017 0.174442
lowerneck -2.06083 2.37248 0.478305
upperneck -15.598 2.80205 -2.76255
head -4.26474 1.51152 -1.03494
lclavicle -1.19198e-14 1.49913e-14 0
lhumerus -44.6996 -11.542 94.8648
lradius 104.367 0 0
lwrist 33.4193 0 0
lhand -39.0807 13.1416 0
lfingers 7.12502 0 0
lthumb -12.0813 42.7691 0
rclavicle -1.19198e-14 1.49913e-14 0
rhumerus -33.1361 11.8001 -87.7805
rradius 98.1925 0 0
rwrist -2.2427 0 0
rhand -44.6152 38.1068 0
rfingers 7.12502 0 0
rthumb -17.4133 8.86671 0
49
root 0.547456 17.3174 -10.4256 3.61184 -7.0676 -3.7748
lfemur -24.1805 12.0038 -12.0104
ltibia 100.958 0 0
lfoot 10.422 -3.92367 0
ltoes -10.1593 0 0
rfemur -14.3487 0.933593 29.4698
rtibia 52.5084 0 0
rfoot -9.52131 -6.43147 0
rtoes -2.92676 0 0
lowerback 18.3723 -0.791402 2.46765
upperback 2.39917 -0.425744 1.38036
thorax -7.69308 -0.271731 0.188019
lowerneck -2.19421 2.27411 0.403308
upperneck -15.4076 2.69194 -2.5477
head -4.18947 1.45345 -0.952159
lclavicle -1.14714e-14 1.5767e-14 0
lhumerus -44.1216 -11.6481 94.5925
lradius 104.439 0 0
lwrist 33.3011 0 0
lhand -38.9951 12.9815 0
lfingers 7.12502 0 0
lthumb -11.9987 42.6133 0
rclavicle -1.14714e-14 1.5767e-14 0
rhumerus -33.5637 11.6403 -87.7033
rradius 97.6508 0 0
rwrist -2.14447 0 0
rhand -44.6155 38.1073 0
rfingers 7.12502 0 0
rthumb -17.4137 8.8673 0
50
root 0.54813 17.3212 -9.88629 3.51147 -6.70581 -3.56462
lfemur -23.9076 11.536 -12.4765
ltibia 99.1387 0 0
lfoot 9.6587 -3.82684 0
ltoes -10.3339 0 0
rfemur -14.3073 0.552702 29.0531
rtibia 54.1039 0 0
rfoot -8.53135 -6.43546 0
rtoes -2.08395 0 0
lowerback 18.3603 -0.791754 2.23509
upperback 2.41794 -0.480454 1.25834
thorax -7.66369 -0.293445 0.201596
lowerneck -2.3276 2.17573 0.328312
upperneck -15.2173 2.58183 -2.33284
head -4.11419 1.39538 -0.869373
lclavicle -1.10229e-14 1.65428e-14 0
lhumerus -43.5436 -11.7541 94.3202
lradius 104.512 0 0
lwrist 33.183 0 0
lhand -38.9095 12.8214 0
lfingers 7.12502 0 0
lthumb -11.9162 42.4576 0
rclavicle -1.10229e-14 1.65428e-14 0
rhumerus -33.9914 11.4805 -87.6261
rradius 97.109 0 0
rwrist -2.04625 0 0
rhand -44.6159 38.1079 0
rfingers 7.12502 0 0
rthumb -17.414 8.86789 0
51
root 0.548804 17.325 -9.34696 3.4111 -6.34403 -3.35444
lfemur -23.6347 11.0682 -12.9426
ltibia 97.3198 0 0
lfoot 8.89539 -3.73001 0
ltoes -10.5084 0 0
rfemur -14.2659 0.171811 28.6364
rtibia 55.6993 0 0
rfoot -7.5414 -6.43945 0
rtoes -1.24113 0 0
lowerback 18.3484 -0.792106 2.00253
upperback 2.43671 -0.535165 1.13632
thorax -7.63429 -0.315159 0.215173
lowerneck -2.46099 2.07736 0.253315
upperneck -15.0269 2.47172 -2.11799
head -4.03891 1.3373 -0.786587
lclavicle -1.05744e-14 1.73185e-14 0
lhumerus -42.9656 -11.8601 94.0479
lradius 104.584 0 0
lwrist 33.0649 0 0
lhand -38.8239 12.6613 0
lfingers 7.12502 0 0
lthumb -11.8336 42.3018 0
rclavicle -1.05744e-14 1.73185e-14 0
rhumerus -34.419 11.3207 -87.5489
rradius 96.5673 0 0
rwrist -1.94802 0 0
rhand -44.6163 38.1084 0
rfingers 7.12502 0 0
rthumb -17.4144 8.86848 0
52
root 0.549478 17.3288 -8.80763 3.31073 -5.98224 -3.14426
lfemur -23.3618 10.6005 -13.4088
ltibia 95.5009 0 0
lfoot 8.13208 -3.63318 0
ltoes -10.683 0 0
rfemur -14.2245 -0.20908 28.2197
rtibia 57.2948 0 0
rfoot -6.55144 -6.44344 0
rtoes -0.398314 0 0
lowerback 18.3364 -0.792458 1.76996
upperback 2.45548 -0.589875 1.01429
thorax -7.60489 -0.336873 0.22875
lowerneck -2.59438 1.97898 0.178319
upperneck -14.8366 2.36161 -1.90313
head -3.96363 1.27923 -0.703801
lclavicle -1.01259e-14 1.80942e-14 0
lhumerus -42.3876 -11.9662 93.7756
lradius 104.657 0 0
lwrist 32.9468 0 0
lhand -38.7383 12.5012 0
lfingers 7.12502 0 0
lthumb -11.7511 42.1461 0
rclavicle -1.01259e-14 1.80942e-14 0
rhumerus -34.8467 11.1609 -87.4717
rradius 96.0255 0 0
rwrist -1.84979 0 0
rhand -44.6166 38.109 0
rfingers 7.12502 0 0
rthumb -17.4147 8.86907 0
53
root 0.550153 17.3326 -8.2683 3.21036 -5.62045 -2.93408
lfemur -23.0889 10.1327 -13.8749
ltibia 93.6819 0 0
lfoot 7.36877 -3.53635 0
ltoes -10.8575 0 0
rfemur -14.1832 -0.589971 27.803
rtibia 58.8902 0 0
rfoot -5.56148 -6.44743 0
rtoes 0.444502 0 0
lowerback 18.3245 -0.79281 1.5374
upperback 2.47425 -0.644586 0.89227
thorax -7.5755 -0.358587 0.242326
lowerneck -2.72777 1.8806 0.103322
upperneck -14.6463 2.25151 -1.68828
head -3.88835 1.22116 -0.621016
lclavicle -9.67744e-15 1.887e-14 0
lhumerus -41.8096 -12.0722 93.5032
lradius 104.73 0 0
lwrist 32.8287 0 0
lhand -38.6528 12.3411 0
lfingers 7.12502 0 0
lthumb -11.6685 41.9903 0
rclavicle -9.67744e-15 1.887e-14 0
rhumerus -35.2743 11.0011 -87.3944
rradius 95.4838 0 0
rwrist -1.75156 0 0
rhand -44.617 38.1095 0
rfingers 7.12502 0 0
rthumb -17.4151 8.86966 0
54
root 0.550827 17.3364 -7.72898 3.10999 -5.25866 -2.7239
lfemur -22.816 9.66491 -14.341
ltibia 91.863 0 0
lfoot 6.60545 -3.43952 0
ltoes -11.032 0 0
rfemur -14.1418 -0.970862 27.3863
rtibia 60.4857 0 0
rfoot -4.57153 -6.45142 0
rtoes 1.28732 0 0
lowerback 18.3125 -0.793162 1.30484
upperback 2.49303 -0.699296 0.770248
thorax -7.5461 -0.380301 0.255903
lowerneck -2.86115 1.78223 0.028326
upperneck -14.4559 2.1414 -1.47342
head -3.81308 1.16309 -0.53823
lclavicle -9.22896e-15 1.96457e-14 0
lhumerus -41.2316 -12.1782 93.2309
lradius 104.802 0 0
lwrist 32.7105 0 0
lhand -38.5672 12.181 0
lfingers 7.12502 0 0
lthumb -11.586 41.8346 0
rclavicle -9.22896e-15 1.96457e-14 0
rhumerus -35.702 10.8413 -87.3172
rradius 94.942 0 0
rwrist -1.65334 0 0
rhand -44.6174 38.1101 0
rfingers 7.12502 0 0
rthumb -17.4154 8.87025 0
55
root 0.551501 17.3402 -7.18965 3.00962 -4.89687 -2.51372
lfemur -22.5431 9.19714 -14.8071
ltibia 90.0441 0 0
lfoot 5.84214 -3.34268 0
ltoes -11.2066 0 0
rfemur -14.1004 -1.35175 26.9696
rtibia 62.0812 0 0
rfoot -3.58157 -6.45541 0
rtoes 2.13014 0 0
lowerback 18.3006 -0.793514 1.07228
upperback 2.5118 -0.754006 0.648225
thorax -7.51671 -0.402015 0.26948
lowerneck -2.99454 1.68385 -0.0466704
upperneck -14.2656 2.03129 -1.25856
head -3.7378 1.10502 -0.455444
lclavicle -8.78048e-15 2.04215e-14 0
lhumerus -40.6536 -12.2843 92.9586
lradius 104.875 0 0
lwrist 32.5924 0 0
lhand -38.4816 12.0209 0
lfingers 7.12502 0 0
lthumb -11.5034 41.6788 0
rclavicle -8.78048e-15 2.04215e-14 0
rhumerus -36.1296 10.6815 -87.24
rradius 94.4003 0 0
rwrist -1.55511 0 0
rhand -44.6177 38.1107 0
rfingers 7.12502 0 0
rthumb -17.4158 8.87084 0
56
root 0.552175 17.344 -6.65032 2.90925 -4.53508 -2.30354
lfemur -22.2702 8.72936 -15.2733
ltibia 88.2252 0 0
lfoot 5.07883 -3.24585 0
ltoes -11.3811 0 0
rfemur -14.059 -1.73264 26.5529
rtibia 63.6766 0 0
rfoot -2.59161 -6.4594 0
rtoes 2.97295 0 0
lowerback 18.2886 -0.793866 0.839712
upperback 2.53057 -0.808717 0.526202
thorax -7.48731 -0.423729 0.283057
lowerneck -3.12793 1.58547 -0.121667
upperneck -14.0752 1.92118 -1.04371
head -3.66252 1.04695 -0.372658
lclavicle -8.332e-15 2.11972e-14 0
lhumerus -40.0756 -12.3903 92.6863
lradius 104.948 0 0
lwrist 32.4743 0 0
lhand -38.396 11.8608 0
lfingers 7.12502 0 0
lthumb -11.4209 41.523 0
rclavicle -8.332e-15 2.11972e-14 0
rhumerus -36.5573 10.5217 -87.1628
rradius 93.8586 0 0
rwrist -1.45688 0 0
rhand -44.6181 38.1112 0
rfingers 7.12502 0 0
rthumb -17.4161 8.87143 0
57
root 0.552849 17.3478 -6.111 2.80888 -4.1733 -2.09336
lfemur -21.9973 8.26159 -15.7394
ltibia 86.4063 0 0
lfoot 4.31552 -3.14902 0
ltoes -11.5557 0 0
rfemur -14.0177 -2.11353 26.1362
rtibia 65.2721 0 0
rfoot -1.60166 -6.46339 0
rtoes 3.81577 0 0
lowerback 18.2767 -0.794218 0.60715
upperback 2.54934 -0.863427 0.40418
thorax -7.45792 -0.445443 0.296634
lowerneck -3.26132 1.4871 -0.196663
upperneck -13.8849 1.81107 -0.828852
head -3.58724 0.988881 -0.289872
lclavicle -7.88353e-15 2.1973e-14 0
lhumerus -39.4976 -12.4963 92.414
lradius 105.02 0 0
lwrist 32.3562 0 0
lhand -38.3104 11.7007 0
lfingers 7.12502 0 0
lthumb -11.3383 41.3673 0
rclavicle -7.88353e-15 2.1973e-14 0
rhumerus -36.9849 10.3619 -87.0856
rradius 93.3168 0 0
rwrist -1.35866 0 0
rhand -44.6185 38.1118 0
rfingers 7.12502 0 0
rthumb -17.4165 8.87202 0
58
root 0.553523 17.3516 -5.57167 2.70851 -3.81151 -1.88319
lfemur -21.7244 7.79381 -16.2055
ltibia 84.5874 0 0
lfoot 3.5522 -3.05219 0
ltoes -11.7302 0 0
rfemur -13.9763 -2.49443 25.7195
rtibia 66.8675 0 0
rfoot -0.611702 -6.46738 0
rtoes 4.65859 0 0
lowerback 18.2647 -0.79457 0.374587
upperback 2.56812 -0.918138 0.282157
thorax -7.42852 -0.467158 0.310211
lowerneck -3.3947 1.38872 -0.27166
upperneck -13.6946 1.70096 -0.613996
head -3.51197 0.930811 -0.207086
lclavicle -7.43505e-15 2.27487e-14 0
lhumerus -38.9196 -12.6024 92.1417
lradius 105.093 0 0
lwrist 32.238 0 0
lhand -38.2248 11.5406 0
lfingers 7.12502 0 0
lthumb -11.2558 41.2115 0
rclavicle -7.43505e-15 2.27487e-14 0
rhumerus -37.4126 10.2021 -87.0084
rradius 92.7751 0 0
rwrist -1.26043 0 0
rhand -44.6188 38.1123 0
rfingers 7.12502 0 0
rthumb -17.4168 8.87261 0
59
root 0.554197 17.3554 -5.03234 2.60813 -3.44972 -1.67301
lfemur -21.4515 7.32604 -16.6716
ltibia 82.7685 0 0
lfoot 2.78889 -2.95536 0
ltoes -11.9047 0 0
rfemur -13.9349 -2.87532 25.3028
rtibia 68.463 0 0
rfoot 0.378254 -6.47137 0
rtoes 5.5014 0 0
lowerback 18.2528 -0.794922 0.142024
upperback 2.58689 -0.972848 0.160134
thorax -7.39912 -0.488872 0.323787
lowerneck -3.52809 1.29035 -0.346656
upperneck -13.5042 1.59085 -0.39914
head -3.43669 0.87274 -0.1243
lclavicle -6.98657e-15 2.35244e-14 0
lhumerus -38.3416 -12.7084 91.8694
lradius 105.165 0 0
lwrist 32.1199 0 0
lhand -38.1392 11.3805 0
lfingers 7.12502 0 0
lthumb -11.1732 41.0558 0
rclavicle -6.98657e-15 2.35244e-14 0
rhumerus -37.8402 10.0423 -86.9312
rradius 92.2333 0 0
rwrist -1.1622 0 0
rhand -44.6192 38.1129 0
rfingers 7.12502 0 0
rthumb -17.4172 8.8732 0
60
root 0.554871 17.3592 -4.49302 2.50776 -3.08793 -1.46283
lfemur -21.1786 6.85827 -17.1378
ltibia 80.9495 0 0
lfoot 2.02558 -2.85853 0
ltoes -12.0793 0 0
rfemur -13.8935 -3.25621 24.8861
rtibia 70.0585 0 0
rfoot 1.36821 -6.47536 0
rtoes 6.34422 0 0
lowerback 18.2408 -0.795274 -0.0905383
upperback 2.60566 -1.02756 0.0381117
thorax -7.36973 -0.510586 0.337364
lowerneck -3.66148 1.19197 -0.421652
upperneck -13.3139 1.48074 -0.184285
head -3.36141 0.814669 -0.0415146
lclavicle -6.53809e-15 2.43002e-14 0
lhumerus -37.7636 -12.8145 91.5971
lradius 105.238 0 0
lwrist 32.0018 0 0
lhand -38.0537 11.2204 0
lfingers 7.12502 0 0
lthumb -11.0907 40.9 0
rclavicle -6.53809e-15 2.43002e-14 0
rhumerus -38.2679 9.88246 -86.8539
rradius 91.6916 0 0
rwrist -1.06398 0 0
rhand -44.6195 38.1135 0
rfingers 7.12502 0 0
rthumb -17.4175 8.87379 0
